# xmcd
#
# Track frame offsets: 
#        150
#        20377
#        47075
#        66167
#        86735
#        109667
#        128917
#        148492
#
# Disc length: 2266 seconds
#
# Revision: 5
# Processed by: cddbd v1.5.2PL0 Copyright (c) Steve Scherf et al.
# Submitted via: ExactAudioCopyFreeDBPlugin 1.0
#
DISCID=7208d808
DTITLE=Iommi With Hughes, Glenn - The 1996 Dep Sessions
DYEAR=2004
DGENRE=Metal
TTITLE0=Gone
TTITLE1=From Another World
TTITLE2=Don't You Tell Me
TTITLE3=Don't Drag The River
TTITLE4=Fine
TTITLE5=Time Is The Healer
TTITLE6=I'm Not The Same Man
TTITLE7=It Falls Through Me
EXTD=YEAR: 2004
EXTT0=
EXTT1=
EXTT2=
EXTT3=
EXTT4=
EXTT5=
EXTT6=
EXTT7=
PLAYORDER=
